<svg xmlns="http://www.w3.org/2000/svg" width="1200" height="630" viewBox="0 0 1200 630" role="img" aria-label="NEGE preview image">
  <defs>
    <linearGradient id="bg" x1="0" y1="0" x2="1" y2="1">
      <stop offset="0%" stop-color="#fff1f5" />
      <stop offset="100%" stop-color="#eef2ff" />
    </linearGradient>
    <linearGradient id="accent" x1="0" y1="0" x2="1" y2="1">
      <stop offset="0%" stop-color="#e11d48" />
      <stop offset="100%" stop-color="#7c3aed" />
    </linearGradient>
  </defs>

  <rect width="1200" height="630" fill="url(#bg)" />
  <circle cx="1100" cy="90" r="160" fill="#ffffff" opacity="0.5" />
  <circle cx="70" cy="560" r="200" fill="#ffffff" opacity="0.45" />

  <rect x="52" y="52" width="1096" height="526" rx="28" fill="#ffffff" />
  <rect x="52" y="52" width="1096" height="526" rx="28" fill="none" stroke="#f3f4f6" stroke-width="2" />

  <rect x="90" y="180" width="170" height="170" rx="26" fill="#f9fafb" />
  <rect x="90" y="180" width="170" height="170" rx="26" fill="none" stroke="#e5e7eb" stroke-width="2" />

  <svg x="120" y="210" width="110" height="110" viewBox="0 0 973 995" version="1.1" aria-hidden="true">
    <g transform="matrix(1,0,0,1,-1267.499031,-349.028274)">
      <g transform="matrix(1.637644,0,0,1.637644,-790.193564,-1249.312317)">
        <g transform="matrix(1.719512,0,0,1.719512,-287.28933,-763.470779)">
          <path d="M1018.333,1364.667L962.384,1364.667C950.964,1364.367 937.122,1359.181 929.39,1351.669C921.657,1344.158 897.804,1320.084 897.804,1320.084L917.132,1300.756C917.132,1300.756 941.541,1325.819 946.391,1330.016C951.241,1334.212 957.462,1337.333 962.384,1337.333L991,1337.333L991,1310L949.128,1310L949.128,1282.667L1032,1282.667C1039.543,1282.667 1045.667,1276.543 1045.667,1269C1045.667,1261.457 1039.543,1255.333 1032,1255.333L949.128,1255.333L949.128,1228L991,1228L991,1195.927L930.293,1215.652L921.846,1189.656L991,1167.187L991,1150.018L977.333,1150.018C954.705,1150.018 936.333,1131.647 936.333,1109.018C936.333,1086.39 954.705,1068.018 977.333,1068.018C999.962,1068.018 1018.333,1086.39 1018.333,1109.018L1018.333,1120.4C1034.741,1114.73 1046.539,1099.138 1046.539,1080.813C1046.539,1057.703 1027.777,1038.94 1004.667,1038.94L1004.667,1011.607C1042.862,1011.607 1073.872,1042.617 1073.872,1080.813C1073.872,1114.331 1049.993,1142.315 1018.333,1148.667L1018.333,1228L1032,1228C1054.629,1228 1073,1246.371 1073,1269C1073,1291.629 1054.629,1310 1032,1310L1018.333,1310L1018.333,1364.667ZM991,1122.685L991,1108.437L990.988,1108.449C990.689,1101.17 984.685,1095.352 977.333,1095.352C969.79,1095.352 963.667,1101.476 963.667,1109.018C963.667,1116.561 969.79,1122.685 977.333,1122.685L991,1122.685Z" fill="#e11d48" />
        </g>
        <g transform="matrix(1.719512,0,0,1.719512,5.529508,-763.470779)">
          <path d="M1018.371,1364.667L962.541,1364.667C951.122,1364.367 937.28,1359.181 929.547,1351.669C921.815,1344.158 897.961,1320.084 897.961,1320.084L917.289,1300.756C917.289,1300.756 941.699,1325.819 946.549,1330.016C951.399,1334.212 957.619,1337.333 962.541,1337.333L991,1337.333L991,1310L949.128,1310L949.128,1282.667L1032,1282.667C1039.543,1282.667 1045.667,1276.543 1045.667,1269C1045.667,1261.457 1039.543,1255.333 1032,1255.333L949.128,1255.333L949.128,1228L991,1228L991,1195.884L930.162,1215.652L921.715,1189.656L991,1167.144L991,1150.045L949.128,1150.045L949.128,1122.711L1032,1122.711C1039.543,1122.711 1045.667,1116.588 1045.667,1109.045C1045.667,1101.502 1039.543,1095.378 1032,1095.378L1032,1068.045C1054.629,1068.045 1073,1086.416 1073,1109.045C1073,1131.673 1054.629,1150.045 1032,1150.045L1018.333,1150.045L1018.333,1228L1032,1228C1054.629,1228 1073,1246.371 1073,1269C1073,1291.629 1054.629,1310 1032,1310L1018.333,1310L1018.333,1337.333L1018.371,1337.333L1018.371,1364.667Z" fill="#e11d48" />
        </g>
        <g transform="matrix(0.722479,0.722479,-0.722479,0.722479,1374.203665,-803.728448)">
          <rect x="1501" y="1212" width="46" height="46" fill="#e11d48" />
        </g>
      </g>
    </g>
  </svg>

  <text x="300" y="250" fill="#111827" font-family="Arial, Helvetica, sans-serif" font-size="72" font-weight="700">NEGE</text>
  <text x="300" y="316" fill="#374151" font-family="Arial, Helvetica, sans-serif" font-size="42" font-weight="600">One logic behind everything</text>
  <text x="300" y="374" fill="#6b7280" font-family="Arial, Helvetica, sans-serif" font-size="32">Нэг логик, нэг шийдэл.</text>

  <rect x="300" y="424" width="290" height="62" rx="14" fill="url(#accent)" />
  <text x="332" y="466" fill="#ffffff" font-family="Arial, Helvetica, sans-serif" font-size="30" font-weight="700">NEGE.MN</text>
</svg>
